HIERARCHY
ROOT pelvis
{
  OFFSET 0 100 0
  CHANNELS 6 Xposition Yposition Zposition Zrotation Xrotation Yrotation
  JOINT pelvis_right_femur
  {
    OFFSET -10.78128 -3.44521 -0.5502486
    CHANNELS 3 Zrotation Xrotation Yrotation
    JOINT right_femur_tibia
    {
      OFFSET -0.8047443 -44.0398 -0.1307829
      CHANNELS 3 Zrotation Xrotation Yrotation
      JOINT right_tibia_foot
      {
        OFFSET 3.006224 -47.83518 -5
        CHANNELS 3 Zrotation Xrotation Yrotation
        End Site
        {
          OFFSET 0 -5 15
        }
      }
    }
  }
  JOINT pelvis_left_femur
  {
    OFFSET 10.78128 -3.44521 -0.5502486
    CHANNELS 3 Zrotation Xrotation Yrotation
    JOINT left_femur_tibia
    {
      OFFSET 0.8047443 -44.0398 -0.1307829
      CHANNELS 3 Zrotation Xrotation Yrotation
      JOINT left_tibia_foot
      {
        OFFSET -4.370144 -48.10324 -4.275266
        CHANNELS 3 Zrotation Xrotation Yrotation
        End Site
        {
          OFFSET 0 -5 15
        }
      }
    }
  }
  JOINT pelvis_spine1
  {
    OFFSET 0 6.468898 -3.129235
    CHANNELS 3 Zrotation Xrotation Yrotation
    JOINT spine1
    {
      OFFSET 0 23.15396 4.99043
      CHANNELS 3 Zrotation Xrotation Yrotation
      JOINT spine2
      {
        OFFSET 0 20.79997 -5.064912
        CHANNELS 3 Zrotation Xrotation Yrotation
        JOINT neck
        {
          OFFSET 0 14.38658 9.616178
          CHANNELS 3 Zrotation Xrotation Yrotation
          End Site
          {
            OFFSET 0 20 0
          }
        }
      }
      JOINT right_manubrium
      {
        OFFSET -5.722621 16.35077 3.967754
        CHANNELS 3 Zrotation Xrotation Yrotation
        JOINT right_clavicle
        {
          OFFSET -13.16364 1.694482 -4.693211
          CHANNELS 3 Zrotation Xrotation Yrotation
          JOINT right_humerus
          {
            OFFSET -28.5034 -0.3100689 -2.792744
            CHANNELS 3 Zrotation Xrotation Yrotation
            JOINT right_radius
            {
              OFFSET -25.15693 0.02248979 -1.271978
              CHANNELS 3 Zrotation Xrotation Yrotation
              End Site
              {
                OFFSET -15 0 0
              }
            }
          }
        }
      }
      JOINT left_manubrium
      {
        OFFSET 5.722621 16.35077 3.967754
        CHANNELS 3 Zrotation Xrotation Yrotation
        JOINT left_clavicle
        {
          OFFSET 13.16364 1.694482 -4.693211
          CHANNELS 3 Zrotation Xrotation Yrotation
          JOINT left_humerus
          {
            OFFSET 29.39168 -1.063119 -2.237045
            CHANNELS 3 Zrotation Xrotation Yrotation
            JOINT left_radius
            {
              OFFSET 24.59957 -0.9528479 0.9047498
              CHANNELS 3 Zrotation Xrotation Yrotation
              End Site
              {
                OFFSET 15 -0 -0
              }
            }
          }
        }
      }
    }
  }
}
MOTION
Frames: 9
Frame Time: 0.0416666666667
36.49531 102.2187 254.5214 2.526235 -8.528875 -1.090132 -0.9478032 21.78642 7.422912 -0 21.7628 -0 7.13451 -13.00866 -0.3012972 -1.603405 -22.71685 -5.779414 -0 28.12602 -0 -7.076701 -6.374524 19.33371 -1.563991 -0.8861891 9.998198 -1.903463 9.993285 -1.863528 2.647483 22.02104 4.994438 1.528081 -14.55003 7.58884 1.562 -21.15161 11.14981 80.81474 21.69795 -5.854184 -0 0 26.12666 -26.08532 13.96628 13.38079 4.302628 -13.81799 -3.21359 -93.55848 22.70463 25.53888 0 0 -9.476584 -3.321948 6.0669 17.35246
37.63542 102.1638 261.2468 2.654704 -8.621653 -0.8984318 -1.471966 20.69951 6.984975 -0 27.01476 -0 7.412673 -11.89488 -0.8471169 -2.608424 -20.47943 -6.611122 -0 26.64026 -0 -6.949087 -6.994943 18.8571 -1.824588 -1.056026 9.626899 -1.973926 9.69529 -1.928062 2.714887 22.18038 4.988536 1.36005 -14.44105 7.818871 1.606723 -20.6754 10.86007 81.28543 21.65081 -6.133316 -0 0 25.46381 -25.86783 13.8713 13.19053 4.16042 -13.48487 -3.241372 -93.09151 23.03942 25.01826 0 0 -9.1188 -3.314826 6.162277 17.45595
38.7804 102.4066 267.9222 2.790595 -8.82004 -0.4669504 -1.80532 18.40324 6.377688 -0 32.2837 -0 7.458137 -10.793 -1.65652 -3.636403 -17.22886 -7.396071 -0 25.59636 -0 -6.781038 -7.804821 18.30817 -2.092197 -1.103632 9.049802 -1.962142 9.470545 -2.124199 2.745491 22.42397 5.012932 1.176472 -14.27766 8.061149 1.754761 -19.97525 10.60283 82.03923 21.78326 -6.901578 -0 0 24.2032 -25.47262 13.83783 12.84114 4.03988 -13.45945 -3.340287 -92.23609 23.43331 23.78321 0 0 -9.276389 -3.149035 6.346879 17.34623
39.89475 102.9213 274.4214 2.926284 -9.088698 0.2124669 -1.953432 14.96726 5.643856 -0 37.07102 -0 7.260874 -9.83433 -2.663281 -4.568919 -13.18381 -8.063714 -0 24.72909 -0 -6.587311 -8.809445 17.71046 -2.345057 -1.007386 8.279345 -1.874342 9.298511 -2.444786 2.742198 22.73666 5.061041 0.979936 -14.06352 8.307724 1.953014 -19.10341 10.37218 83.03021 22.05702 -8.07664 -0 0 22.48249 -24.92087 13.84784 12.3613 3.968457 -13.73488 -3.498832 -91.02346 23.85443 21.86714 0 0 -9.960834 -2.824514 6.621723 17.009
40.95295 103.6184 280.6656 3.059535 -9.33822 1.121879 -1.9772 10.62703 4.862838 -0 40.61271 -0 6.836083 -9.085417 -3.751573 -5.32882 -8.642289 -8.593111 -0 23.82201 -0 -6.39596 -9.96745 17.06921 -2.572014 -0.8025219 7.362073 -1.716199 9.138082 -2.887341 2.727826 23.08372 5.114136 0.7846694 -13.81392 8.54961 2.11438 -18.11629 10.13821 84.19068 22.41106 -9.553379 -0 0 20.49978 -24.2483 13.87055 11.79411 3.980582 -14.26518 -3.696566 -89.52718 24.25981 19.36628 0 0 -11.14303 -2.353735 6.982829 16.4455
41.94066 104.3483 286.643 3.183438 -9.467399 2.212976 -1.944021 5.692016 4.113343 -0 42.14027 -0 6.208865 -8.573843 -4.797837 -5.872196 -3.914613 -8.997754 -0 22.72379 -0 -6.238435 -11.21588 16.38159 -2.769421 -0.5487806 6.35907 -1.494424 8.943991 -3.447234 2.732189 23.42485 5.149134 0.6090384 -13.54918 8.777374 2.150534 -17.06713 9.867974 85.44336 22.78261 -11.22064 -0 0 18.45929 -23.49464 13.87332 11.18472 4.108026 -14.98749 -3.908694 -87.84233 24.60812 16.41123 0 0 -12.7677 -1.755289 7.422363 15.66752
42.8507 104.9409 292.3944 3.286531 -9.422456 3.420172 -1.893343 0.4697556 3.4416 -0 41.33877 -0 5.407219 -8.298286 -5.726187 -6.194309 0.7593544 -9.306106 -0 21.42428 -0 -6.137083 -12.49255 15.65385 -2.93726 -0.2951017 5.3299 -1.220741 8.691416 -4.100857 2.774455 23.73152 5.149108 0.4658675 -13.2897 8.981341 2.023055 -15.99619 9.552542 86.72057 23.1286 -12.98195 -0 0 16.4923 -22.68999 13.83611 10.56112 4.358475 -15.8403 -4.111496 -86.0678 24.86873 13.1518 0 0 -14.74554 -1.051417 7.926788 14.7019
43.67894 105.2609 297.9912 3.361194 -9.211834 4.673249 -1.832554 -4.704481 2.863194 -0 38.47703 -0 4.461606 -8.240177 -6.518998 -6.324417 5.201619 -9.541814 -0 20.11194 -0 -6.104292 -13.73352 14.91332 -3.075468 -0.07216046 4.339344 -0.914213 8.383188 -4.790961 2.858767 23.98906 5.103775 0.361323 -13.05964 9.147915 1.758298 -14.93261 9.216161 87.96038 23.42805 -14.74923 -0 0 14.63834 -21.84923 13.75303 9.92507 4.707493 -16.76189 -4.280171 -84.31209 25.02683 9.775169 0 0 -16.93532 -0.2703857 8.477585 13.59465
44.42257 105.2513 303.5199 3.408983 -8.887225 5.902521 -1.745632 -9.451213 2.379247 -0 34.23991 -0 3.404832 -8.372661 -7.197286 -6.312452 9.262142 -9.714222 -0 19.13729 -0 -6.145141 -14.86768 14.20704 -3.182341 0.1012692 3.460627 -0.5986961 8.042804 -5.432453 2.978768 24.19173 5.006471 0.2977224 -12.8879 9.25888 1.427604 -13.90068 8.905644 89.09979 23.6763 -16.43415 -0 0 12.87381 -20.97547 13.62655 9.258088 5.106832 -17.68644 -4.388552 -82.69195 25.08841 6.50598 0 0 -19.15034 0.5528226 9.054541 12.40759
